<?xml version="1.0" encoding="UTF-8" standalone="no"?>
<svg
   xmlns:dc="http://purl.org/dc/elements/1.1/"
   xmlns:cc="http://creativecommons.org/ns#"
   xmlns:rdf="http://www.w3.org/1999/02/22-rdf-syntax-ns#"
   xmlns:svg="http://www.w3.org/2000/svg"
   xmlns="http://www.w3.org/2000/svg"
   xmlns:sodipodi="http://sodipodi.sourceforge.net/DTD/sodipodi-0.dtd"
   xmlns:inkscape="http://www.inkscape.org/namespaces/inkscape"
   width="692pt"
   height="641pt"
   viewBox="0 0 692 641"
   version="1.1"
   id="svg2"
   inkscape:version="0.91 r13725"
   sodipodi:docname="master_chief_traced.svg">
  <metadata
     id="metadata36">
    <rdf:RDF>
      <cc:Work
         rdf:about="">
        <dc:format>image/svg+xml</dc:format>
        <dc:type
           rdf:resource="http://purl.org/dc/dcmitype/StillImage" />
        <dc:title></dc:title>
      </cc:Work>
    </rdf:RDF>
  </metadata>
  <defs
     id="defs34" />
  <sodipodi:namedview
     pagecolor="#ffffff"
     bordercolor="#666666"
     borderopacity="1"
     objecttolerance="10"
     gridtolerance="10"
     guidetolerance="10"
     inkscape:pageopacity="0"
     inkscape:pageshadow="2"
     inkscape:window-width="1920"
     inkscape:window-height="1028"
     id="namedview32"
     showgrid="false"
     inkscape:zoom="0.83308431"
     inkscape:cx="345.8433"
     inkscape:cy="384.87965"
     inkscape:window-x="-8"
     inkscape:window-y="-8"
     inkscape:window-maximized="1"
     inkscape:current-layer="svg2" />
  <path
     fill="#fefefe"
     d=" M 0.00 0.00 L 692.00 0.00 L 692.00 641.00 L 0.00 641.00 L 0.00 0.00 Z"
     id="path4" />
  <path
     d=" M 305.27 31.22 C 332.20 19.78 362.38 19.30 391.00 23.01 C 428.13 28.17 464.09 40.48 497.29 57.76 C 523.24 71.49 548.06 88.29 567.72 110.30 C 577.63 121.44 586.21 134.21 590.29 148.68 C 591.30 151.64 589.60 154.58 587.94 156.93 C 584.94 161.09 579.89 163.19 574.94 163.78 C 562.16 165.36 549.50 161.28 536.72 162.54 C 536.25 170.44 534.90 178.26 532.84 185.89 C 532.07 189.30 530.59 192.83 531.71 196.33 C 535.05 208.39 537.38 221.09 535.39 233.60 C 533.91 243.02 529.39 251.90 522.71 258.70 C 518.84 262.85 513.86 265.88 510.57 270.57 C 507.17 274.83 504.54 279.97 499.95 283.11 C 495.33 284.79 490.31 283.21 485.53 283.30 C 483.69 287.10 481.27 290.77 480.58 295.01 C 481.48 299.15 484.16 302.57 486.30 306.14 C 494.88 301.32 503.97 297.18 513.72 295.46 C 517.97 294.55 522.36 294.53 526.60 293.61 C 529.15 291.81 531.23 289.45 533.42 287.25 C 539.22 288.98 545.11 290.64 550.48 293.50 C 555.98 296.44 559.80 301.58 564.87 305.12 C 569.24 308.42 574.40 312.25 574.82 318.19 C 575.01 327.30 572.09 336.14 568.66 344.47 C 564.21 355.60 560.45 367.97 550.90 375.91 C 540.92 382.60 528.41 382.60 516.99 384.80 C 510.15 385.82 503.85 389.17 496.89 389.58 C 490.78 390.01 484.63 389.78 478.52 390.30 C 461.10 391.90 443.67 387.87 426.27 390.06 C 427.27 392.97 428.31 395.86 429.41 398.74 C 436.16 399.82 442.96 400.71 449.55 402.61 C 460.63 405.67 471.12 410.44 481.99 414.10 C 485.85 415.36 489.95 415.50 493.95 416.13 C 525.17 420.58 554.72 435.68 576.56 458.44 C 598.67 481.31 613.68 510.13 623.97 540.00 C 625.46 543.93 626.04 548.66 629.67 551.31 C 643.25 562.12 658.64 570.32 673.07 579.91 C 674.88 581.27 677.39 582.50 677.55 585.08 C 678.41 590.04 678.90 595.05 679.38 600.06 C 680.24 609.10 678.07 618.03 676.98 626.96 C 622.98 624.33 568.98 628.22 514.99 629.04 C 485.95 629.36 456.78 629.24 427.94 625.38 C 425.21 625.29 424.42 622.22 424.01 620.04 C 422.68 611.99 422.40 603.82 421.58 595.72 C 419.55 570.35 410.54 545.98 398.06 523.96 C 391.23 512.52 382.36 502.45 375.55 490.99 C 382.09 483.33 391.51 478.98 401.09 476.50 C 399.31 468.57 394.27 461.96 389.16 455.85 C 385.05 451.00 380.95 445.93 375.52 442.50 C 373.51 441.41 370.84 439.91 368.72 441.60 C 363.12 445.33 356.97 448.74 350.08 448.97 C 338.27 449.54 327.85 442.85 318.37 436.64 C 310.38 431.59 302.64 425.28 293.12 423.52 C 291.68 424.39 291.21 426.16 290.42 427.55 C 283.63 442.61 274.49 457.15 272.71 473.92 C 277.71 476.89 284.50 478.02 287.56 483.44 C 289.91 490.41 286.09 497.48 281.81 502.83 C 276.43 509.31 273.37 517.22 269.80 524.75 C 263.77 538.28 257.95 552.01 254.28 566.39 C 252.33 577.49 251.10 588.70 249.52 599.85 C 247.98 609.81 250.37 620.00 248.00 629.88 C 199.72 625.90 151.32 629.90 103.00 630.81 C 77.44 631.08 51.71 630.84 26.44 626.53 C 24.41 618.20 23.33 609.61 23.53 601.03 C 23.83 587.71 27.04 574.70 29.88 561.75 C 34.69 544.78 43.10 529.10 52.00 513.97 C 68.72 486.31 88.57 460.33 112.21 438.21 C 123.55 427.90 135.82 418.09 150.19 412.35 C 158.33 409.14 167.79 407.34 176.13 410.90 C 178.22 411.56 180.54 413.27 182.66 411.73 C 189.20 408.28 196.28 404.88 200.57 398.59 C 206.05 390.90 211.44 382.77 219.44 377.45 C 227.16 372.53 233.22 365.47 241.08 360.72 C 241.03 351.66 232.94 346.11 229.76 338.32 C 227.84 334.07 230.48 329.82 231.79 325.84 C 233.71 320.70 236.10 314.90 241.21 312.23 C 249.25 310.66 256.37 315.80 264.08 317.01 C 260.57 302.24 244.89 295.23 239.58 281.41 C 233.82 268.48 243.04 255.19 241.06 241.91 C 228.66 250.97 213.04 253.88 198.08 255.49 C 194.24 255.95 190.51 257.21 187.19 259.21 C 177.19 265.23 170.73 275.70 160.52 281.43 C 157.89 283.09 153.89 283.55 153.12 287.10 C 149.70 296.73 146.12 306.55 139.65 314.61 C 137.65 316.99 135.60 320.15 132.11 320.17 C 123.84 321.08 115.20 321.54 107.20 318.83 C 101.38 316.92 96.84 312.61 92.51 308.48 C 85.43 301.62 79.51 293.46 75.88 284.27 C 72.72 277.32 76.83 270.07 78.01 263.15 C 74.53 259.22 69.80 255.97 68.07 250.80 C 67.13 246.34 69.42 242.04 70.94 237.97 C 76.80 224.22 86.35 212.35 97.28 202.27 C 111.51 189.08 128.02 178.69 144.45 168.50 C 151.08 164.29 159.49 164.22 166.89 166.12 C 173.58 167.79 179.57 171.29 185.83 174.06 C 186.42 169.16 186.96 164.26 187.40 159.34 C 207.80 150.88 230.30 147.80 252.28 149.40 C 260.34 149.95 268.25 151.73 276.01 153.93 C 280.58 121.35 278.77 87.79 287.86 55.90 C 290.93 46.32 295.24 35.32 305.27 31.22 Z"
     id="path6"
     fill="#050505" />
  <path
     d="m 317.72,33.65 c 37.03,-10.78 76.89,-7.09 113.25,4.51 42.26,13.61 81,36.7 115.55,64.33 6.62,5.35 13.19,10.79 19.41,16.6 3.32,3.04 5.62,6.94 7.87,10.79 -7.1,-2.65 -14.61,-3.84 -21.9,-5.83 -37.83,-9.96 -75.29,-21.3 -112.4,-33.64 -5.55,-1.23 -11.18,0.46 -16.67,1.2 6.14,4.56 13.3,7.39 20.31,10.29 31.75,12.15 64.61,21.11 97.57,29.32 14.05,4.21 28.59,6.14 43.01,8.53 -0.46,3.77 -1.27,7.99 -4.69,10.23 -2.26,2.03 -5.4,1.88 -8.13,1.12 -24.91,-5.8 -50.24,-9.46 -75.21,-14.94 -17.07,-3.53 -34.03,-7.99 -50.15,-14.71 -5.91,-2.39 -10.46,-7.08 -16.15,-9.87 -15.38,-8.01 -32.44,-11.96 -49.23,-15.78 -4.87,12.47 -12.45,23.67 -17.22,36.18 -0.82,2.63 -2.27,5.51 -1.11,8.26 1.44,3.88 3.97,7.21 6.47,10.47 18.27,22.39 40.15,41.65 63.74,58.27 7.11,4.95 15.81,7.41 24.46,6.82 2.81,-6.25 7.86,-11.41 14.25,-13.99 12.11,-5.34 26.06,-4.8 38.52,-0.97 6.95,2.27 12.79,7.72 15.31,14.61 4.18,11.09 2.17,23.73 -3.01,34.13 -4.19,9 -13.4,14.72 -22.78,17.01 -12.85,2.25 -26,-0.39 -38.3,-4.2 -23.89,-7.08 -46.81,-17.2 -68.56,-29.3 -39.46,-22.03 -75.27,-51.2 -102.9,-87.1 -2.2,-3.01 -5.18,-5.95 -5.16,-9.95 -0.66,-9.37 -0.29,-18.78 0.33,-28.14 1.55,-18.82 6.77,-37.08 12.8,-54.9 1.59,-4.43 4.48057,-7.66957 6.56057,-11.89957 4.9,-3.01 8.75943,-5.62043 14.15943,-7.45043 z"
     id="path8"
     inkscape:connector-curvature="0"
     style="fill:#fefefe"
     sodipodi:nodetypes="ccccccccccccccccccccccccccccccccccc" />
  <path
     fill="#fefefe"
     d=" M 203.66 167.21 C 230.31 160.10 258.05 165.94 285.10 162.71 C 286.85 162.35 288.52 162.95 289.77 164.21 C 308.10 179.85 322.29 199.83 341.44 214.57 C 345.88 218.05 350.80 220.84 355.55 223.88 C 355.55 227.59 355.49 231.30 355.37 235.02 C 344.96 236.68 334.43 237.39 324.01 239.01 C 311.69 241.56 298.67 243.36 286.35 239.83 C 280.53 238.36 275.62 234.44 269.61 233.58 C 263.27 232.31 255.59 232.34 251.19 226.80 C 248.90 223.45 246.52 219.50 247.03 215.28 C 248.58 213.78 250.79 213.42 252.80 212.90 C 260.80 211.11 268.89 209.37 276.39 205.96 C 275.49 196.89 268.21 190.71 261.67 185.27 C 257.40 181.54 251.37 181.45 246.00 181.48 C 237.88 181.71 229.66 182.50 221.59 181.25 C 214.22 178.80 209.12 172.41 203.66 167.21 Z"
     id="path10" />
  <path
     fill="#fefefe"
     d=" M 142.94 184.94 C 148.22 181.89 153.91 179.22 160.03 178.53 C 162.39 178.07 164.41 179.61 166.36 180.70 C 172.40 184.44 178.26 188.66 182.96 194.04 C 186.30 197.84 188.79 202.80 188.19 207.99 C 187.45 214.59 182.80 219.80 178.37 224.38 C 171.64 231.38 163.31 236.58 156.59 243.59 C 151.51 248.71 145.80 254.66 138.08 254.87 C 130.41 254.91 122.63 254.49 115.09 256.23 C 110.86 257.00 107.01 258.95 102.94 260.21 C 100.88 259.87 99.10 258.67 97.28 257.72 C 91.62 254.40 85.89 251.15 80.65 247.18 C 87.64 235.98 96.31 225.93 105.33 216.32 C 116.63 204.51 128.79 193.26 142.94 184.94 Z"
     id="path12" />
  <path
     d="m 346.66,250.84 c 8.17,-3.26 15.31,-8.61 23.4,-11.98 4.19,1.43 7.56,4.52 11.32,6.77 6.72,4.2 12.85,9.26 19.63,13.38 13.2,7.27 27.85,11.56 42.6,14.39 10.83,2.42 21.9,3.39 32.94,4.31 -2.6,22.71 -9.02,45.28 -21.01,64.87 -2.64,5.43 -11.15,4.57 -14.11,-0.05 -1.55,-6.07 -1,-12.44 -1.34,-18.65 -13.06,-5.08 -27.24,-6.51 -41.15,-6.69 -18.2105,4.88083 -36.08755,8.00767 -50.02,14.86 -4.66,2.3 -10.19,1.84 -14.94,0.05 -8.87,-3.31 -16.39,-9.33 -25.13,-12.91 -5.65,-2.39 -11.78,-3.3 -17.5,-5.48 -9.48,-3.39 -18.2,-8.71 -25.9,-15.18 -8.85,-8 -12.69,-19.75 -17.57,-30.3 4.28,-0.4 8.67,-0.79 12.91,0.18 5.26,1.14 9.73,4.3 14.49,6.65 -2.35,-5.38 -4.72,-11.14 -9.32,-15 -5.44,-3.98 -12.56,-3.54 -18.91,-4.57 0.72,-4.44 1.99,-8.76 3.18,-13.09 10.42,3.65 20.82,7.47 31.64,9.81 16.72,3.9 34.14,3.78 51.07,1.49 4.62,-0.64 9.39,-0.97 13.72,-2.86 z"
     id="path14"
     inkscape:connector-curvature="0"
     style="fill:#fefefe"
     sodipodi:nodetypes="cccccccccccccccccccccccc" />
  <path
     d="m 243.62,325.65 c 3.52,-2.12 8.24,-3.52 12.07,-1.34 6.66,3.29 12.76,7.8 19.97,9.89 36.86,11.18 71.48,28.58 108.37,39.7 5.36,1.71 10.27,4.53 15.54,6.51 6.98,2.96 11.42414,5.62903 18.21463,9.19756 -3.09,6.17 -7.28463,5.77244 -13.53463,5.17244 -12.48,-1.07 -24.26,-5.75 -35.82,-10.27 -19.49,-7.74 -38.19,-17.31 -57.64,-25.14 -8.46,-3.82 -17.65,-0.4 -26.15,1.43 -3.69,0.66 -7.65,2.78 -11.32,0.96 -13.01,-5.95 -23.48,-16.06 -35.93,-22.95 0.61,-4.85 1.86,-10.31 6.23,-13.16 z"
     id="path16"
     inkscape:connector-curvature="0"
     style="fill:#fefefe"
     sodipodi:nodetypes="ccccccccccccc" />
  <path
     fill="#fefefe"
     d=" M 270.01 374.77 C 280.59 374.65 289.33 368.02 299.24 365.39 C 304.18 363.77 308.55 367.13 312.77 369.14 C 323.39 374.32 334.72 377.81 345.61 382.37 C 362.21 389.46 379.96 393.40 396.57 400.47 C 399.65 401.76 402.52 403.49 405.19 405.49 C 384.89 412.33 367.20 424.90 347.18 432.38 C 341.79 434.18 335.95 436.63 330.24 434.73 C 322.95 432.56 316.74 427.86 311.21 422.79 C 295.67 408.39 284.47 390.15 270.01 374.77 Z"
     id="path18" />
  <path
     fill="#fefefe"
     d=" M 153.72 420.76 C 156.32 419.61 159.15 420.16 161.59 421.44 C 183.05 431.46 205.18 439.99 226.30 450.74 C 245.22 460.53 263.77 472.28 277.42 488.91 C 273.63 496.29 268.75 503.14 265.95 511.00 C 263.32 518.46 259.72 525.54 257.09 533.00 C 250.84 549.86 246.50 567.33 242.56 584.85 C 238.01 584.06 233.46 583.28 228.88 582.73 C 227.79 586.69 227.48 590.80 227.51 594.90 C 224.22 595.79 220.88 596.46 217.50 596.89 C 212.66 586.58 207.09 575.17 196.52 569.72 C 182.43 567.46 168.10 566.74 153.95 564.82 C 132.29 562.35 110.67 559.25 89.35 554.66 C 74.61 551.23 59.85 547.39 45.97 541.26 C 55.30 524.25 65.91 507.96 77.21 492.20 C 89.33 475.57 102.27 459.42 117.22 445.22 C 127.91 435.18 139.65 425.55 153.72 420.76 Z"
     id="path20" />
  <path
     fill="#fefefe"
     d=" M 489.30 437.29 C 498.26 433.47 508.73 429.73 518.28 433.70 C 532.04 439.47 545.30 446.69 556.99 456.01 C 566.98 463.96 575.74 473.38 583.39 483.58 C 594.97 498.91 604.84 515.48 613.25 532.74 C 616.19 538.92 618.16 545.56 618.76 552.40 C 593.26 555.65 567.17 556.03 542.39 563.47 C 532.33 566.72 521.41 571.29 516.02 581.00 C 512.09 588.41 505.58 593.88 499.97 599.96 C 492.77 598.28 485.41 597.28 478.00 597.40 C 475.16 597.19 471.61 597.98 469.66 595.35 C 465.27 590.51 459.90 585.61 453.02 585.28 C 445.11 585.08 437.16 585.94 429.30 584.58 C 429.71 572.00 427.71 559.24 422.14 547.87 C 419.12 542.09 417.12 535.82 413.76 530.21 C 406.36 518.13 397.38 507.00 391.18 494.19 C 426.43 479.82 454.88 453.24 489.30 437.29 Z"
     id="path22" />
  <path
     fill="#fefefe"
     d=" M 38.80 555.16 C 82.97 560.99 126.83 568.94 170.72 576.55 C 181.61 578.59 192.59 580.14 203.42 582.47 C 208.66 593.63 213.38 605.06 217.03 616.85 C 155.67 615.30 94.24 619.88 32.94 615.82 C 31.71 595.36 38.37 575.54 38.80 555.16 Z"
     id="path24" />
  <path
     fill="#fefefe"
     d=" M 559.60 568.70 C 580.24 563.00 601.77 561.70 623.08 561.27 C 627.41 560.80 631.02 563.50 634.63 565.44 C 647.15 572.44 659.48 579.82 671.14 588.20 C 670.82 598.69 671.24 609.19 670.73 619.67 C 618.14 618.62 565.53 618.13 512.94 617.28 C 512.74 607.27 515.78 597.07 522.44 589.46 C 531.91 578.39 545.88 572.55 559.60 568.70 Z"
     id="path26" />
  <path
     fill="#fefefe"
     d=" M 230.56 591.13 C 234.10 590.36 237.70 589.87 241.31 589.53 C 243.15 597.89 242.01 606.48 240.48 614.80 C 235.52 615.26 230.52 615.41 225.53 615.27 C 227.16 607.21 229.14 599.23 230.56 591.13 Z"
     id="path28" />
  <path
     fill="#fefefe"
     d=" M 427.89 600.29 C 435.71 597.56 443.31 594.27 450.62 590.38 C 456.08 596.95 462.22 603.74 470.70 606.21 C 480.87 608.96 491.75 607.08 501.85 610.28 C 505.47 611.67 505.54 616.24 506.65 619.39 C 482.46 619.48 458.30 617.78 434.23 615.59 C 431.93 610.57 429.78 605.48 427.89 600.29 Z"
     id="path30" />
</svg>
